<svg xmlns="http://www.w3.org/2000/svg" xmlns:xlink="http://www.w3.org/1999/xlink" version="1.1" id="Layer_1" x="0" y="0" viewBox="0 0 100 99.5" xml:space="preserve" enable-background="new 0 0 100 99.5"><style type="text/css">
	.st0{fill:#313234;}
</style><title>Search</title><desc>Created with Sketch.</desc><g id="Page-1"><g id="Hide---Men_x27_s-Messenger-Bags" transform="translate(-1354.000000, -23.000000)"><g id="Top-bar"><path id="Search" class="st0" d="M1394 102.9c-22.1 0-40-17.9-40-40s17.9-40 40-40c22.1 0 40 17.9 40 40 0 9-3 17.3-8 24l26.2 25.3c2.4 2.3 2.4 6 0.1 8.4 -2.3 2.4-6 2.4-8.4 0.1l-26.5-25.5C1410.9 100.1 1402.8 102.9 1394 102.9zM1393.6 91.3c6.2 0 11.9-2 16.6-5.4l6-5.9c3.5-4.7 5.6-10.6 5.6-16.9 0-15.6-12.6-28.2-28.2-28.2 -15.6 0-28.2 12.6-28.2 28.2S1378 91.3 1393.6 91.3z"/></g></g></g></svg>
