<svg xmlns="http://www.w3.org/2000/svg" xmlns:xlink="http://www.w3.org/1999/xlink" version="1.1" id="Layer_1" x="0" y="0" viewBox="0 0 100 92.7" xml:space="preserve" enable-background="new 0 0 100 92.7"><style type="text/css">
	.st0{fill:#313234;}
</style><title>Cart</title><desc>Created with Sketch.</desc><g id="Page-1"><g id="Hide---Men_x27_s-Messenger-Bags" transform="translate(-1308.000000, -24.000000)"><g id="Top-bar"><g id="Group-2" transform="translate(1308.000000, 24.000000)"><g id="Group"><path id="Cart" class="st0" d="M25.5 17.1L25.5 17.1 25.5 17.1 37.8 63c-0.6-2.3-2.6-3.6-4.9-3.2l48.5-7c-1.2 0.2-1.6 0.5-1.9 1.7l10.6-37.5c-1.1 3.8 2.1 8 6 8H19.6C23.4 24.9 26.5 20.8 25.5 17.1L25.5 17.1zM24.3 14.8h71.8c2.8 0 4.4 2.1 3.7 4.8L89.3 57.1c-0.8 2.7-3.6 5.1-6.3 5.5l-48.5 7c-2.8 0.4-5.6-1.5-6.3-4.1l-8.4-31.5L11.9 8.6l3.9 3.5L4.1 10C1.4 9.5-0.4 6.9 0.1 4.1s3.1-4.5 5.8-4.1l11.7 2.1 3 0.5 0.9 2.9L24.3 14.8zM36.5 92.7c-4.9 0-8.8-3.9-8.8-8.8s3.9-8.8 8.8-8.8 8.8 3.9 8.8 8.8S41.3 92.7 36.5 92.7zM81.7 92.7c-4.9 0-8.8-3.9-8.8-8.8s3.9-8.8 8.8-8.8 8.8 3.9 8.8 8.8S86.6 92.7 81.7 92.7z"/></g></g></g></g></g></svg>
